<?xml version="1.0" encoding="UTF-8" standalone="no"?>
<!-- Created with Inkscape (http://www.inkscape.org/) -->
<svg
   xmlns:dc="http://purl.org/dc/elements/1.1/"
   xmlns:cc="http://creativecommons.org/ns#"
   xmlns:rdf="http://www.w3.org/1999/02/22-rdf-syntax-ns#"
   xmlns:svg="http://www.w3.org/2000/svg"
   xmlns="http://www.w3.org/2000/svg"
   xmlns:sodipodi="http://sodipodi.sourceforge.net/DTD/sodipodi-0.dtd"
   xmlns:inkscape="http://www.inkscape.org/namespaces/inkscape"
   width="372.88885"
   height="495.54053"
   id="svg2"
   sodipodi:version="0.32"
   inkscape:version="0.46+pre4"
   version="1.0"
   sodipodi:docname="personal-injury-lawyer-black.svg"
   inkscape:output_extension="org.inkscape.output.svg.inkscape">
  <defs
     id="defs4">
    <inkscape:perspective
       id="perspective8143"
       inkscape:persp3d-origin="372.04724 : 350.78739 : 1"
       inkscape:vp_z="744.09448 : 526.18109 : 1"
       inkscape:vp_y="0 : 1000 : 0"
       inkscape:vp_x="0 : 526.18109 : 1"
       sodipodi:type="inkscape:persp3d" />
    <clipPath
       clipPathUnits="userSpaceOnUse"
       id="clipPath2598">
      <path
         d="M 298.038,34.442 L 351.318,34.442 L 351.318,88.071 L 298.038,88.071 L 298.038,34.442 z"
         id="path2600" />
    </clipPath>
    <clipPath
       clipPathUnits="userSpaceOnUse"
       id="clipPath2612">
      <path
         d="M 299.364,35.758 L 350.311,35.758 L 350.311,86.705 L 299.364,86.705 L 299.364,35.758 z"
         id="path2614" />
    </clipPath>
    <clipPath
       clipPathUnits="userSpaceOnUse"
       id="clipPath2624">
      <path
         d="M 299.364,35.758 L 350.311,35.758 L 350.311,86.705 L 299.364,86.705 L 299.364,35.758 z"
         id="path2626" />
    </clipPath>
    <clipPath
       clipPathUnits="userSpaceOnUse"
       id="clipPath2768">
      <path
         d="M 299.364,35.758 L 350.311,35.758 L 350.311,86.705 L 299.364,86.705 L 299.364,35.758 z"
         id="path2770" />
    </clipPath>
    <clipPath
       clipPathUnits="userSpaceOnUse"
       id="clipPath2780">
      <path
         d="M 299.364,35.758 L 350.311,35.758 L 350.311,86.705 L 299.364,86.705 L 299.364,35.758 z"
         id="path2782" />
    </clipPath>
    <clipPath
       clipPathUnits="userSpaceOnUse"
       id="clipPath2792">
      <path
         d="M 299.364,35.758 L 350.311,35.758 L 350.311,86.705 L 299.364,86.705 L 299.364,35.758 z"
         id="path2794" />
    </clipPath>
    <clipPath
       clipPathUnits="userSpaceOnUse"
       id="clipPath2936">
      <path
         d="M 299.364,35.758 L 350.311,35.758 L 350.311,86.705 L 299.364,86.705 L 299.364,35.758 z"
         id="path2938" />
    </clipPath>
    <clipPath
       clipPathUnits="userSpaceOnUse"
       id="clipPath2948">
      <path
         d="M 299.364,35.758 L 350.311,35.758 L 350.311,86.705 L 299.364,86.705 L 299.364,35.758 z"
         id="path2950" />
    </clipPath>
    <clipPath
       clipPathUnits="userSpaceOnUse"
       id="clipPath2960">
      <path
         d="M 299.364,35.758 L 350.311,35.758 L 350.311,86.705 L 299.364,86.705 L 299.364,35.758 z"
         id="path2962" />
    </clipPath>
    <clipPath
       clipPathUnits="userSpaceOnUse"
       id="clipPath3102">
      <path
         d="M 299.364,35.758 L 350.311,35.758 L 350.311,86.705 L 299.364,86.705 L 299.364,35.758 z"
         id="path3104" />
    </clipPath>
    <clipPath
       clipPathUnits="userSpaceOnUse"
       id="clipPath3254">
      <path
         d="M 299.364,35.758 L 350.311,35.758 L 350.311,86.705 L 299.364,86.705 L 299.364,35.758 z"
         id="path3256" />
    </clipPath>
  </defs>
  <sodipodi:namedview
     id="base"
     pagecolor="#ffffff"
     bordercolor="#666666"
     borderopacity="1.0"
     gridtolerance="10000"
     guidetolerance="10"
     objecttolerance="10"
     inkscape:pageopacity="0.0"
     inkscape:pageshadow="2"
     inkscape:zoom="0.98994949"
     inkscape:cx="30.367163"
     inkscape:cy="355.01126"
     inkscape:document-units="px"
     inkscape:current-layer="layer1"
     showgrid="false"
     inkscape:window-width="1680"
     inkscape:window-height="1001"
     inkscape:window-x="-4"
     inkscape:window-y="-4" />
  <metadata
     id="metadata7">
    <rdf:RDF>
      <cc:Work
         rdf:about="">
        <dc:format>image/svg+xml</dc:format>
        <dc:type
           rdf:resource="http://purl.org/dc/dcmitype/StillImage" />
        <dc:title>Personal injury attorney</dc:title>
        <dc:subject>
          <rdf:Bag>
            <rdf:li>Personal injury accident broken arm gause symbol lawyer attorney law-suit court justice</rdf:li>
          </rdf:Bag>
        </dc:subject>
      </cc:Work>
    </rdf:RDF>
  </metadata>
  <g
     inkscape:label="Layer 1"
     inkscape:groupmode="layer"
     id="layer1"
     transform="translate(-186.24826,-21.446648)">
    <g
       id="g2542">
      <g
         inkscape:label="Layer 1"
         id="g2541"
         transform="matrix(2.1275953,0,0,2.1275953,-437.55415,-683.29087)">
        <g
           id="g4019">
          <path
             id="path3262"
             style="fill:#231f20;fill-opacity:1;fill-rule:evenodd;stroke:none"
             d="M 404.97474,471.48103 L 404.97474,481.55102 L 404.97474,471.48103 z" />
          <path
             id="path3264"
             style="fill:none;stroke:#231f20;stroke-width:0.64116037;stroke-linecap:butt;stroke-linejoin:miter;stroke-miterlimit:2.61299992;stroke-dasharray:none;stroke-opacity:1"
             d="M 404.97474,471.48103 L 404.97474,481.55102" />
          <path
             id="path3266"
             style="fill:#231f20;fill-opacity:1;fill-rule:evenodd;stroke:none"
             d="M 384.66505,470.83987 L 384.66505,482.19218 L 384.66505,470.83987 z" />
          <path
             id="path3268"
             style="fill:none;stroke:#231f20;stroke-width:0.64116037;stroke-linecap:butt;stroke-linejoin:miter;stroke-miterlimit:2.61299992;stroke-dasharray:none;stroke-opacity:1"
             d="M 384.66505,470.83987 L 384.66505,482.19218" />
          <path
             id="path3270"
             style="fill:#231f20;fill-opacity:1;fill-rule:evenodd;stroke:none"
             d="M 381.30839,474.19653 L 381.30839,482.19218 L 381.30839,474.19653 z" />
          <path
             id="path3272"
             style="fill:none;stroke:#231f20;stroke-width:0.64116037;stroke-linecap:butt;stroke-linejoin:miter;stroke-miterlimit:2.61299992;stroke-dasharray:none;stroke-opacity:1"
             d="M 381.30839,474.19653 L 381.30839,482.19218" />
          <path
             id="path3752"
             style="fill:#231f20;fill-opacity:1;fill-rule:evenodd;stroke:none"
             d="M 446.71617,435.98149 C 446.71617,435.98149 444.79269,373.13835 446.71617,374.25096 C 449.59196,376.17444 446.71617,435.98149 446.71617,435.98149" />
          <path
             id="path3754"
             style="fill:none;stroke:#231f20;stroke-width:0.64116037;stroke-linecap:butt;stroke-linejoin:miter;stroke-miterlimit:2.61299992;stroke-dasharray:none;stroke-opacity:1"
             d="M 446.71617,435.98149 C 446.71617,435.98149 444.79269,373.13835 446.71617,374.25096 C 449.59196,376.17444 446.71617,435.98149 446.71617,435.98149 z" />
          <path
             id="path3756"
             style="fill:#231f20;fill-opacity:1;fill-rule:evenodd;stroke:none"
             d="M 424.96386,435.98149 L 468.13846,435.98149 C 468.13846,435.98149 465.10238,450.53018 447.02732,450.53018 C 428.00937,450.53018 424.96386,435.98149 424.96386,435.98149" />
          <path
             id="path3758"
             style="fill:none;stroke:#231f20;stroke-width:0.64116037;stroke-linecap:butt;stroke-linejoin:miter;stroke-miterlimit:2.61299992;stroke-dasharray:none;stroke-opacity:1"
             d="M 424.96386,435.98149 L 468.13846,435.98149 C 468.13846,435.98149 465.10238,450.53018 447.02732,450.53018 C 428.00937,450.53018 424.96386,435.98149 424.96386,435.98149 z" />
          <path
             id="path3760"
             style="fill:#ffffff;fill-opacity:1;fill-rule:evenodd;stroke:none"
             d="M 429.28226,435.98149 C 429.28226,435.98149 431.67719,447.17351 440.63457,447.17351 C 449.59196,447.17351 452.63747,437.57497 451.98688,435.98149 L 436.95733,435.98149 C 436.95733,435.98149 434.56241,441.58222 439.52197,443.33598 C 439.52197,443.33598 434.56241,444.93888 432.15806,436.46236 L 429.28226,435.98149 z" />
          <path
             id="path3762"
             style="fill:none;stroke:#231f20;stroke-width:0.64116037;stroke-linecap:butt;stroke-linejoin:miter;stroke-miterlimit:2.61299992;stroke-dasharray:none;stroke-opacity:1"
             d="M 429.28226,435.98149 C 429.28226,435.98149 431.67719,447.17351 440.63457,447.17351 C 449.59196,447.17351 452.63747,437.57497 451.98688,435.98149 L 436.95733,435.98149 C 436.95733,435.98149 434.56241,441.58222 439.52197,443.33598 C 439.52197,443.33598 434.56241,444.93888 432.15806,436.46236 L 429.28226,435.98149 z" />
          <path
             id="path3764"
             style="fill:#ffffff;fill-opacity:1;fill-rule:evenodd;stroke:none"
             d="M 460.94427,435.98149 C 460.94427,435.98149 462.70746,438.697 458.54935,442.05366 C 454.39123,445.58004 463.98035,442.69482 465.10238,435.98149 L 460.94427,435.98149 z" />
          <path
             id="path3766"
             style="fill:none;stroke:#231f20;stroke-width:0.64116037;stroke-linecap:butt;stroke-linejoin:miter;stroke-miterlimit:2.61299992;stroke-dasharray:none;stroke-opacity:1"
             d="M 460.94427,435.98149 C 460.94427,435.98149 462.70746,438.697 458.54935,442.05366 C 454.39123,445.58004 463.98035,442.69482 465.10238,435.98149 L 460.94427,435.98149 z" />
          <path
             id="path3768"
             style="fill:#231f20;fill-opacity:1;fill-rule:evenodd;stroke:none"
             d="M 426.40647,436.46236 C 426.40647,436.46236 445.27356,376.8156 446.71617,378.40907 C 448.9508,380.97371 426.40647,436.46236 426.40647,436.46236" />
          <path
             id="path3770"
             style="fill:none;stroke:#231f20;stroke-width:0.64116037;stroke-linecap:butt;stroke-linejoin:miter;stroke-miterlimit:2.61299992;stroke-dasharray:none;stroke-opacity:1"
             d="M 426.40647,436.46236 C 426.40647,436.46236 445.27356,376.8156 446.71617,378.40907 C 448.9508,380.97371 426.40647,436.46236 426.40647,436.46236 z" />
          <path
             id="path3772"
             style="fill:#231f20;fill-opacity:1;fill-rule:evenodd;stroke:none"
             d="M 466.3847,435.34033 C 466.3847,435.34033 446.87646,375.85386 445.59414,377.45676 C 443.51037,380.01197 466.3847,435.34033 466.3847,435.34033" />
          <path
             id="path3774"
             style="fill:none;stroke:#231f20;stroke-width:0.64116037;stroke-linecap:butt;stroke-linejoin:miter;stroke-miterlimit:2.61299992;stroke-dasharray:none;stroke-opacity:1"
             d="M 466.3847,435.34033 C 466.3847,435.34033 446.87646,375.85386 445.59414,377.45676 C 443.51037,380.01197 466.3847,435.34033 466.3847,435.34033 z" />
          <path
             id="path3776"
             style="fill:#ffffff;fill-opacity:1;fill-rule:evenodd;stroke:none"
             d="M 381.30839,331.55722 L 381.30839,342.2778 L 387.38998,347.38822 L 389.62461,457.88466 C 389.62461,460.76988 390.10548,464.28684 410.0946,464.28684 C 410.0946,464.28684 412.32923,479.79726 410.57547,482.19218 L 381.30839,482.19218 L 351.89044,482.19218 C 350.28754,479.79726 352.52217,464.28684 352.52217,464.28684 C 372.351,464.28684 372.99216,460.76988 372.99216,457.88466 L 375.23622,347.38822 L 381.30839,342.2778 L 381.30839,331.55722 z" />
          <path
             id="path3778"
             style="fill:none;stroke:#231f20;stroke-width:0.64116037;stroke-linecap:butt;stroke-linejoin:miter;stroke-miterlimit:2.61299992;stroke-dasharray:none;stroke-opacity:1"
             d="M 381.30839,331.55722 L 381.30839,342.2778 L 387.38998,347.38822 L 389.62461,457.88466 C 389.62461,460.76988 390.10548,464.28684 410.0946,464.28684 C 410.0946,464.28684 412.32923,479.79726 410.57547,482.19218 L 381.30839,482.19218 L 351.89044,482.19218 C 350.28754,479.79726 352.52217,464.28684 352.52217,464.28684 C 372.351,464.28684 372.99216,460.76988 372.99216,457.88466 L 375.23622,347.38822 L 381.30839,342.2778 L 381.30839,331.55722 z" />
          <path
             id="path3780"
             style="fill:#ffffff;fill-opacity:1;fill-rule:evenodd;stroke:none"
             d="M 381.30839,389.12965 L 452.94862,377.76791 L 381.30839,370.41342 L 309.66815,377.76791 L 381.30839,389.12965 z" />
          <path
             id="path3782"
             style="fill:none;stroke:#231f20;stroke-width:0.64116037;stroke-linecap:butt;stroke-linejoin:miter;stroke-miterlimit:2.61299992;stroke-dasharray:none;stroke-opacity:1"
             d="M 381.30839,389.12965 L 452.94862,377.76791 L 381.30839,370.41342 L 309.66815,377.76791 L 381.30839,389.12965 z" />
          <path
             id="path3784"
             style="fill:#231f20;fill-opacity:1;fill-rule:evenodd;stroke:none"
             d="M 381.1481,380.97371 C 382.27013,380.97371 383.23187,380.01197 383.23187,378.72965 C 383.23187,377.60762 382.27013,376.65531 381.1481,376.65531 C 380.03549,376.65531 378.91346,377.60762 378.91346,378.72965 C 378.91346,380.01197 380.03549,380.97371 381.1481,380.97371" />
          <path
             id="path3786"
             style="fill:none;stroke:#231f20;stroke-width:0.64116037;stroke-linecap:butt;stroke-linejoin:miter;stroke-miterlimit:2.61299992;stroke-dasharray:none;stroke-opacity:1"
             d="M 381.1481,380.97371 C 382.27013,380.97371 383.23187,380.01197 383.23187,378.72965 C 383.23187,377.60762 382.27013,376.65531 381.1481,376.65531 C 380.03549,376.65531 378.91346,377.60762 378.91346,378.72965 C 378.91346,380.01197 380.03549,380.97371 381.1481,380.97371 z" />
          <path
             id="path3788"
             style="fill:#231f20;fill-opacity:1;fill-rule:evenodd;stroke:none"
             d="M 315.42916,435.98149 C 315.42916,435.98149 313.34539,373.13835 315.42916,374.25096 C 318.14467,376.17444 315.42916,435.98149 315.42916,435.98149" />
          <path
             id="path3790"
             style="fill:none;stroke:#231f20;stroke-width:0.64116037;stroke-linecap:butt;stroke-linejoin:miter;stroke-miterlimit:2.61299992;stroke-dasharray:none;stroke-opacity:1"
             d="M 315.42916,435.98149 C 315.42916,435.98149 313.34539,373.13835 315.42916,374.25096 C 318.14467,376.17444 315.42916,435.98149 315.42916,435.98149 z" />
          <path
             id="path3792"
             style="fill:#231f20;fill-opacity:1;fill-rule:evenodd;stroke:none"
             d="M 293.51657,435.98149 L 336.69117,435.98149 C 336.69117,435.98149 333.81538,450.53018 315.74974,450.53018 C 296.72237,450.53018 293.51657,435.98149 293.51657,435.98149" />
          <path
             id="path3794"
             style="fill:none;stroke:#231f20;stroke-width:0.64116037;stroke-linecap:butt;stroke-linejoin:miter;stroke-miterlimit:2.61299992;stroke-dasharray:none;stroke-opacity:1"
             d="M 293.51657,435.98149 L 336.69117,435.98149 C 336.69117,435.98149 333.81538,450.53018 315.74974,450.53018 C 296.72237,450.53018 293.51657,435.98149 293.51657,435.98149 z" />
          <path
             id="path3796"
             style="fill:#ffffff;fill-opacity:1;fill-rule:evenodd;stroke:none"
             d="M 297.83497,435.98149 C 297.83497,435.98149 300.23932,447.17351 309.18728,447.17351 C 318.14467,447.17351 321.18075,437.57497 320.54902,435.98149 L 305.67033,435.98149 C 305.67033,435.98149 303.11511,441.58222 308.07468,443.33598 C 308.07468,443.33598 303.11511,444.93888 300.72019,436.46236 L 297.83497,435.98149 z" />
          <path
             id="path3798"
             style="fill:none;stroke:#231f20;stroke-width:0.64116037;stroke-linecap:butt;stroke-linejoin:miter;stroke-miterlimit:2.61299992;stroke-dasharray:none;stroke-opacity:1"
             d="M 297.83497,435.98149 C 297.83497,435.98149 300.23932,447.17351 309.18728,447.17351 C 318.14467,447.17351 321.18075,437.57497 320.54902,435.98149 L 305.67033,435.98149 C 305.67033,435.98149 303.11511,441.58222 308.07468,443.33598 C 308.07468,443.33598 303.11511,444.93888 300.72019,436.46236 L 297.83497,435.98149 z" />
          <path
             id="path3800"
             style="fill:#ffffff;fill-opacity:1;fill-rule:evenodd;stroke:none"
             d="M 329.49698,435.98149 C 329.49698,435.98149 331.26017,438.697 327.10205,442.05366 C 322.94394,445.58004 332.54249,442.69482 333.81538,435.98149 L 329.49698,435.98149 z" />
          <path
             id="path3802"
             style="fill:none;stroke:#231f20;stroke-width:0.64116037;stroke-linecap:butt;stroke-linejoin:miter;stroke-miterlimit:2.61299992;stroke-dasharray:none;stroke-opacity:1"
             d="M 329.49698,435.98149 C 329.49698,435.98149 331.26017,438.697 327.10205,442.05366 C 322.94394,445.58004 332.54249,442.69482 333.81538,435.98149 L 329.49698,435.98149 z" />
          <path
             id="path3804"
             style="fill:#231f20;fill-opacity:1;fill-rule:evenodd;stroke:none"
             d="M 294.95918,436.46236 C 294.95918,436.46236 313.82626,376.8156 315.42916,378.40907 C 317.50351,380.97371 294.95918,436.46236 294.95918,436.46236" />
          <path
             id="path3806"
             style="fill:none;stroke:#231f20;stroke-width:0.64116037;stroke-linecap:butt;stroke-linejoin:miter;stroke-miterlimit:2.61299992;stroke-dasharray:none;stroke-opacity:1"
             d="M 294.95918,436.46236 C 294.95918,436.46236 313.82626,376.8156 315.42916,378.40907 C 317.50351,380.97371 294.95918,436.46236 294.95918,436.46236 z" />
          <path
             id="path3808"
             style="fill:#231f20;fill-opacity:1;fill-rule:evenodd;stroke:none"
             d="M 335.0977,435.34033 C 335.0977,435.34033 315.58945,375.85386 314.14684,377.45676 C 312.0725,380.01197 335.0977,435.34033 335.0977,435.34033" />
          <path
             id="path3810"
             style="fill:none;stroke:#231f20;stroke-width:0.64116037;stroke-linecap:butt;stroke-linejoin:miter;stroke-miterlimit:2.61299992;stroke-dasharray:none;stroke-opacity:1"
             d="M 335.0977,435.34033 C 335.0977,435.34033 315.58945,375.85386 314.14684,377.45676 C 312.0725,380.01197 335.0977,435.34033 335.0977,435.34033 z M 386.26795,402.5563 L 387.38998,457.41322 M 377.95172,348.99112 L 376.82969,460.12872" />
          <path
             id="path3812"
             style="fill:#231f20;fill-opacity:1;fill-rule:evenodd;stroke:none"
             d="M 375.23622,390.72312 C 375.23622,390.72312 387.38998,393.43862 388.50258,396.965 C 389.62461,400.32167 388.03114,386.24442 388.03114,386.24442 L 374.59506,386.24442 L 375.23622,390.72312 z" />
          <path
             id="path3814"
             style="fill:none;stroke:#231f20;stroke-width:0.64116037;stroke-linecap:butt;stroke-linejoin:miter;stroke-miterlimit:2.61299992;stroke-dasharray:none;stroke-opacity:1"
             d="M 375.23622,390.72312 C 375.23622,390.72312 387.38998,393.43862 388.50258,396.965 C 389.62461,400.32167 388.03114,386.24442 388.03114,386.24442 L 374.59506,386.24442 L 375.23622,390.72312 z" />
          <path
             id="path3816"
             style="fill:#231f20;fill-opacity:1;fill-rule:evenodd;stroke:none"
             d="M 355.40739,464.76771 L 355.40739,481.55102 L 355.40739,464.76771 z" />
          <path
             id="path3818"
             style="fill:none;stroke:#231f20;stroke-width:0.64116037;stroke-linecap:butt;stroke-linejoin:miter;stroke-miterlimit:2.61299992;stroke-dasharray:none;stroke-opacity:1"
             d="M 355.40739,464.76771 L 355.40739,481.55102" />
          <path
             id="path3820"
             style="fill:#231f20;fill-opacity:1;fill-rule:evenodd;stroke:none"
             d="M 358.76406,464.28684 L 358.76406,481.55102 L 358.76406,464.28684 z" />
          <path
             id="path3822"
             style="fill:none;stroke:#231f20;stroke-width:0.64116037;stroke-linecap:butt;stroke-linejoin:miter;stroke-miterlimit:2.61299992;stroke-dasharray:none;stroke-opacity:1"
             d="M 358.76406,464.28684 L 358.76406,481.55102" />
          <path
             id="path3824"
             style="fill:#231f20;fill-opacity:1;fill-rule:evenodd;stroke:none"
             d="M 362.12072,465.23915 L 362.12072,481.55102 L 362.12072,465.23915 z" />
          <path
             id="path3826"
             style="fill:none;stroke:#231f20;stroke-width:0.64116037;stroke-linecap:butt;stroke-linejoin:miter;stroke-miterlimit:2.61299992;stroke-dasharray:none;stroke-opacity:1"
             d="M 362.12072,465.23915 L 362.12072,481.55102" />
          <path
             id="path3828"
             style="fill:#231f20;fill-opacity:1;fill-rule:evenodd;stroke:none"
             d="M 364.99651,463.64568 L 364.99651,482.19218 L 364.99651,463.64568 z" />
          <path
             id="path3830"
             style="fill:none;stroke:#231f20;stroke-width:0.64116037;stroke-linecap:butt;stroke-linejoin:miter;stroke-miterlimit:2.61299992;stroke-dasharray:none;stroke-opacity:1"
             d="M 364.99651,463.64568 L 364.99651,482.19218" />
          <path
             id="path3832"
             style="fill:#231f20;fill-opacity:1;fill-rule:evenodd;stroke:none"
             d="M 368.3626,463.16481 L 368.3626,471.48103 L 368.3626,463.16481 z" />
          <path
             id="path3834"
             style="fill:none;stroke:#231f20;stroke-width:0.64116037;stroke-linecap:butt;stroke-linejoin:miter;stroke-miterlimit:2.61299992;stroke-dasharray:none;stroke-opacity:1"
             d="M 368.3626,463.16481 L 368.3626,471.48103" />
          <path
             id="path3836"
             style="fill:#231f20;fill-opacity:1;fill-rule:evenodd;stroke:none"
             d="M 371.07811,461.25075 L 371.07811,466.36118 L 371.07811,461.25075 z" />
          <path
             id="path3838"
             style="fill:none;stroke:#231f20;stroke-width:0.64116037;stroke-linecap:butt;stroke-linejoin:miter;stroke-miterlimit:2.61299992;stroke-dasharray:none;stroke-opacity:1"
             d="M 371.07811,461.25075 L 371.07811,466.36118" />
          <path
             id="path3840"
             style="fill:#231f20;fill-opacity:1;fill-rule:evenodd;stroke:none"
             d="M 407.69968,468.12437 L 407.69968,482.19218 L 407.69968,468.12437 z" />
          <path
             id="path3842"
             style="fill:none;stroke:#231f20;stroke-width:0.64116037;stroke-linecap:butt;stroke-linejoin:miter;stroke-miterlimit:2.61299992;stroke-dasharray:none;stroke-opacity:1"
             d="M 407.69968,468.12437 L 407.69968,482.19218" />
          <path
             id="path3844"
             style="fill:#231f20;fill-opacity:1;fill-rule:evenodd;stroke:none"
             d="M 402.74011,464.28684 L 402.74011,468.60524 L 402.74011,464.28684 z" />
          <path
             id="path3846"
             style="fill:none;stroke:#231f20;stroke-width:0.64116037;stroke-linecap:butt;stroke-linejoin:miter;stroke-miterlimit:2.61299992;stroke-dasharray:none;stroke-opacity:1"
             d="M 402.74011,464.28684 L 402.74011,468.60524" />
          <path
             id="path3848"
             style="fill:#231f20;fill-opacity:1;fill-rule:evenodd;stroke:none"
             d="M 399.70403,464.28684 L 399.70403,468.60524 L 399.70403,464.28684 z" />
          <path
             id="path3850"
             style="fill:none;stroke:#231f20;stroke-width:0.64116037;stroke-linecap:butt;stroke-linejoin:miter;stroke-miterlimit:2.61299992;stroke-dasharray:none;stroke-opacity:1"
             d="M 399.70403,464.28684 L 399.70403,468.60524" />
          <path
             id="path3852"
             style="fill:#231f20;fill-opacity:1;fill-rule:evenodd;stroke:none"
             d="M 396.9791,463.64568 L 396.9791,471.9619 L 396.9791,463.64568 z" />
          <path
             id="path3854"
             style="fill:none;stroke:#231f20;stroke-width:0.64116037;stroke-linecap:butt;stroke-linejoin:miter;stroke-miterlimit:2.61299992;stroke-dasharray:none;stroke-opacity:1"
             d="M 396.9791,463.64568 L 396.9791,471.9619" />
          <path
             id="path3856"
             style="fill:#231f20;fill-opacity:1;fill-rule:evenodd;stroke:none"
             d="M 394.2636,467.00234 L 394.2636,474.19653 L 394.2636,467.00234 z" />
          <path
             id="path3858"
             style="fill:none;stroke:#231f20;stroke-width:0.64116037;stroke-linecap:butt;stroke-linejoin:miter;stroke-miterlimit:2.61299992;stroke-dasharray:none;stroke-opacity:1"
             d="M 394.2636,467.00234 L 394.2636,474.19653" />
          <path
             id="path3860"
             style="fill:#231f20;fill-opacity:1;fill-rule:evenodd;stroke:none"
             d="M 391.3878,470.359 L 391.3878,481.55102 L 391.3878,470.359 z" />
          <path
             id="path3862"
             style="fill:none;stroke:#231f20;stroke-width:0.64116037;stroke-linecap:butt;stroke-linejoin:miter;stroke-miterlimit:2.61299992;stroke-dasharray:none;stroke-opacity:1"
             d="M 391.3878,470.359 L 391.3878,481.55102" />
          <path
             id="path3864"
             style="fill:#231f20;fill-opacity:1;fill-rule:evenodd;stroke:none"
             d="M 388.03114,470.359 L 388.03114,482.19218 L 388.03114,470.359 z" />
          <path
             id="path3866"
             style="fill:none;stroke:#231f20;stroke-width:0.64116037;stroke-linecap:butt;stroke-linejoin:miter;stroke-miterlimit:2.61299992;stroke-dasharray:none;stroke-opacity:1"
             d="M 388.03114,470.359 L 388.03114,482.19218" />
        </g>
      </g>
      <path
         id="rect2383"
         d="M 377.03125,265.86219 C 307.69447,265.86219 251.4375,322.11915 251.4375,391.45594 C 251.4375,393.07576 251.47038,394.69467 251.53125,396.29969 L 251.53125,511.98719 L 502.03125,511.98719 L 502.03125,403.95594 C 502.43778,399.84559 502.65625,395.67262 502.65625,391.45594 C 502.65625,322.11915 446.36803,265.86219 377.03125,265.86219 z"
         style="fill:#000000;fill-opacity:1;fill-rule:evenodd;stroke:#ffffff;stroke-width:10;stroke-linecap:round;stroke-linejoin:round;stroke-miterlimit:4.0999999;stroke-dasharray:none;stroke-dashoffset:1.99999995;stroke-opacity:1" />
      <path
         transform="matrix(1.4545455,0,0,1.4545455,14.93506,-59.515282)"
         d="M 300,197.71933 A 53.92857,53.92857 0 1 1 192.14286,197.71933 A 53.92857,53.92857 0 1 1 300,197.71933 z"
         sodipodi:ry="53.92857"
         sodipodi:rx="53.92857"
         sodipodi:cy="197.71933"
         sodipodi:cx="246.07143"
         id="path2388"
         style="fill:#000000;fill-opacity:1;fill-rule:evenodd;stroke:#ffffff;stroke-width:10;stroke-linecap:round;stroke-linejoin:round;stroke-miterlimit:4.0999999;stroke-dasharray:none;stroke-dashoffset:1.99999995;stroke-opacity:1"
         sodipodi:type="arc" />
      <path
         sodipodi:nodetypes="ccccccccccccccc"
         id="rect2390"
         d="M 445.64286,339.14732 C 444.02763,339.14732 442.70536,340.43833 442.70536,342.05357 L 442.70536,420.24107 L 327.58036,420.24107 C 325.96513,420.24107 324.67411,421.53208 324.67411,423.14732 L 324.67411,467.27232 C 324.67411,468.88755 325.96513,470.20981 327.58036,470.20982 L 444.23661,470.20982 L 498.36161,470.58482 C 499.13697,470.58482 499.84037,470.26259 500.36161,469.77232 C 501.20312,469.26206 501.76786,468.33231 501.76786,467.27232 L 501.76786,423.14732 L 501.29911,382.76786 C 500.94197,362.22405 495.69113,345.21875 488.36161,339.14732 L 445.64286,339.14732 z"
         style="fill:#000000;fill-opacity:1;fill-rule:evenodd;stroke:#ffffff;stroke-width:10.75864029;stroke-linecap:round;stroke-linejoin:round;stroke-miterlimit:4.0999999;stroke-dasharray:none;stroke-dashoffset:1.99999995;stroke-opacity:1" />
      <path
         sodipodi:nodetypes="ccccccccc"
         id="rect2396"
         d="M 460.4633,297.67949 L 481.04213,320.05007 C 484.06069,322.03659 498.41139,350.25844 495.91718,354.04844 L 403.05911,476.64668 C 400.5649,480.43669 396.12683,481.8886 393.10827,479.90208 L 344.67229,478.60292 C 341.65373,476.6164 359.08874,452.68028 361.58295,448.89027 L 442.65532,312.72061 C 445.14953,308.9306 457.44474,295.69297 460.4633,297.67949 z"
         style="fill:#999999;fill-opacity:1;fill-rule:evenodd;stroke:#ffffff;stroke-width:11.78177452;stroke-linecap:round;stroke-linejoin:round;stroke-miterlimit:4.0999999;stroke-dashoffset:1.99999995;stroke-opacity:1" />
    </g>
  </g>
</svg>
